<svg width="150" height="80" viewBox="0 0 150 80" fill="none" xmlns="http://www.w3.org/2000/svg">
<g clip-path="url(#clip0_41_47)">
<rect width="150" height="80" fill="black"/>
<ellipse cx="44.8201" cy="40.0762" rx="44.2039" ry="39.6646" fill="#D9D9D9"/>
<path d="M41.3234 20.202C33.6874 15.7934 30.3838 20.3065 24.9664 20.5035C14.6512 8.40794 -1.99787 30.5803 -5.4497 47.8568C-9.95529 50.9249 -15.3802 55.6026 -21.6595 62.4562C-16.4481 70.91 -8.7655 76.7654 1.84929 77.7883C3.92375 72.2881 5.25575 67.5264 6.25731 63.3954C10.5617 63.6376 15.3155 66.0372 16.6707 71.9662C18.904 68.1718 17.2866 65.0483 14.5214 63.222L15.2254 55.2261C24.3651 52.5013 32.8362 47.6025 35.0159 38.7595C36.6004 32.8459 47.5532 34.9473 55.4447 41.0085C53.8059 36.3038 50.3312 32.6429 46.6157 29.895C47.1114 26.3163 45.1457 22.4088 41.3234 20.202ZM41.0974 23.9672C42.4038 24.7215 42.8551 26.3928 42.1011 27.6989C41.3469 29.0052 39.674 29.4499 38.3677 28.6957C37.0614 27.9415 36.6143 26.2728 37.3684 24.9665C38.1225 23.6604 39.7915 23.2132 41.0974 23.9672ZM12.2703 56.0284L11.7519 61.9338C9.99675 61.3996 8.1465 61.3115 6.64143 61.7692C7.03575 60.0718 7.38337 58.4853 7.70861 57.0078C9.23869 56.7276 10.76 56.4009 12.2703 56.0284Z" fill="black"/>
<mask id="path-3-outside-1_41_47" maskUnits="userSpaceOnUse" x="22.0645" y="45.3962" width="64" height="31" fill="black">
<rect fill="white" x="22.0645" y="45.3962" width="64" height="31"/>
<path d="M27.4824 52.747V55.3539C27.4824 55.8574 27.569 56.2093 27.7423 56.4097C27.9155 56.6046 28.2701 56.702 28.8061 56.702H29.001V57.6035H23.0645V56.702H23.2837C23.836 56.702 24.1933 56.6019 24.3557 56.4015C24.5236 56.1958 24.6075 55.8466 24.6075 55.3539V48.8407C24.6075 48.3372 24.5209 47.988 24.3476 47.7931C24.1743 47.5928 23.8197 47.4926 23.2837 47.4926H23.0645V46.5911L27.4824 46.583L28.4732 46.5749C29.4531 46.5749 30.1678 46.6074 30.6172 46.6724C31.0719 46.7373 31.5186 46.8943 31.9571 47.1434C32.3957 47.387 32.7395 47.7227 32.9885 48.1504C33.243 48.5781 33.3702 49.0383 33.3702 49.531C33.3702 50.8412 32.6285 51.7373 31.145 52.2191C31.5403 52.4682 32.1548 53.2478 32.9885 54.558C33.6382 55.5705 34.1011 56.1823 34.3773 56.3934C34.6534 56.5992 34.9566 56.702 35.2868 56.702V57.6035H31.8435C31.5294 57.2299 30.9474 56.2824 30.0974 54.7611C29.6697 53.9923 29.3692 53.4969 29.1959 53.2749C29.0227 53.0529 28.844 52.9121 28.6599 52.8526C28.4813 52.7876 28.0888 52.7524 27.4824 52.747ZM27.4824 51.7562C28.3974 51.767 29.0146 51.7129 29.334 51.5938C29.6534 51.4693 29.9052 51.25 30.0893 50.936C30.2734 50.6165 30.3654 50.1861 30.3654 49.6447C30.3654 48.8705 30.1813 48.3345 29.8132 48.0367C29.4504 47.7389 28.8224 47.5901 27.929 47.5901C27.8153 47.5901 27.6665 47.5928 27.4824 47.5982V51.7562Z"/>
<path d="M38.636 54.6311L38.4249 55.1752C38.2733 55.5596 38.1975 55.8303 38.1975 55.9874C38.1975 56.2526 38.2868 56.4394 38.4655 56.5477C38.6441 56.6506 38.9365 56.702 39.3426 56.702V57.6035H35.7043V56.702C36.3973 56.702 36.9793 56.1119 37.4503 54.9316L40.8369 46.3962H41.787L45.2385 54.9235C45.5796 55.7681 45.8882 56.277 46.1643 56.4503C46.4405 56.6181 46.7058 56.702 46.9602 56.702V57.6035H41.4947V56.702C41.9874 56.702 42.2933 56.656 42.4124 56.564C42.5315 56.4665 42.591 56.3447 42.591 56.1985C42.591 56.0686 42.5423 55.898 42.4448 55.6869L42.3393 55.4351L42.0225 54.6311H38.636ZM38.9852 53.6972H41.6571L40.2846 50.4081L38.9852 53.6972Z"/>
<path d="M51.7062 57.8309L47.9461 49.3848C47.6429 48.7027 47.4345 48.2668 47.3208 48.0773C47.2071 47.8824 47.0555 47.7362 46.866 47.6388C46.6765 47.5413 46.3733 47.4926 45.9564 47.4926V46.5911H51.8118V47.4926C50.9943 47.4926 50.5855 47.6929 50.5855 48.0936C50.5855 48.3155 50.7019 48.681 50.9347 49.1899L53.1924 54.1845L55.312 49.1818C55.4691 48.8136 55.5476 48.5023 55.5476 48.2479C55.5476 47.7444 55.1388 47.4926 54.3213 47.4926V46.5911H58.1951V47.4926C57.7457 47.4926 57.4019 47.6117 57.1637 47.8499C56.9309 48.0882 56.56 48.8082 56.0511 50.0102L52.7051 57.8309H51.7062Z"/>
<path d="M63.6151 52.3409V55.0615C63.6151 55.5813 63.6449 55.9224 63.7045 56.0848C63.764 56.2418 63.9237 56.3745 64.1836 56.4827C64.4435 56.5856 64.8387 56.6371 65.3693 56.6371C66.0894 56.6371 66.6173 56.5477 66.953 56.3691C67.294 56.1904 67.5972 55.8764 67.8625 55.427C68.1332 54.9776 68.3281 54.4985 68.4472 53.9895H69.3568L69.2837 57.6035H59.2135V56.702H59.4165C59.9633 56.702 60.3179 56.6019 60.4804 56.4015C60.6482 56.1958 60.7321 55.8466 60.7321 55.3539V48.8245C60.7321 48.321 60.6455 47.9717 60.4722 47.7768C60.3044 47.5765 59.9525 47.4764 59.4165 47.4764H59.2135V46.5911H68.5934L68.7559 49.4417H67.8463C67.6839 48.9436 67.5025 48.5484 67.3022 48.256C67.1018 47.9582 66.8988 47.7687 66.6931 47.6875C66.4928 47.6009 66.1517 47.5576 65.6698 47.5576H63.6151V51.3583H64.6384C65.1257 51.3583 65.4478 51.2662 65.6048 51.0822C65.7673 50.8981 65.8593 50.5353 65.881 49.9939H66.7986V53.7297H65.881C65.8864 53.6593 65.8891 53.6079 65.8891 53.5754C65.8891 53.2613 65.8214 52.9771 65.686 52.7226C65.5561 52.4682 65.2177 52.3409 64.6709 52.3409H63.6151Z"/>
<path d="M73.7618 49.7259V54.7854C73.7618 55.5975 73.9079 56.12 74.2003 56.3528C74.4981 56.5856 74.8771 56.702 75.3373 56.702V57.6035H71.2036V56.702C71.5555 56.702 71.8614 56.6181 72.1213 56.4503C72.3812 56.277 72.5463 56.0794 72.6167 55.8574C72.6871 55.63 72.7222 55.2754 72.7222 54.7935V49.1737C72.7222 48.053 72.1971 47.4926 71.1467 47.4926V46.5911H74.8662L80.9003 53.3317V49.2955C80.9003 48.0936 80.3941 47.4926 79.3816 47.4926V46.5911H83.3366V47.4926C83.0605 47.4926 82.8006 47.5684 82.557 47.72C82.3188 47.8716 82.1564 48.0665 82.0697 48.3047C81.9831 48.5375 81.9398 48.8786 81.9398 49.328V57.7821H80.9003L73.7618 49.7259Z"/>
<path d="M50.1307 64.1248V63.2233H55.9536V64.1248H55.7831C55.2363 64.1248 54.8789 64.2277 54.7111 64.4334C54.5487 64.6337 54.4674 64.9802 54.4674 65.4729V71.9861C54.4674 72.4896 54.5514 72.8415 54.7192 73.0418C54.8925 73.2367 55.2471 73.3342 55.7831 73.3342H55.9536V74.2357H50.1307V73.3342C50.7155 73.3342 51.1026 73.2449 51.2921 73.0662C51.487 72.8875 51.5844 72.5275 51.5844 71.9861V65.4729C51.5844 64.9477 51.4924 64.5931 51.3083 64.409C51.1296 64.2195 50.7371 64.1248 50.1307 64.1248Z"/>
<path d="M60.2773 66.3581V71.4176C60.2773 72.2297 60.4235 72.7522 60.7159 72.985C61.0137 73.2178 61.3927 73.3342 61.8529 73.3342V74.2357H57.7192V73.3342C58.0711 73.3342 58.377 73.2503 58.6369 73.0824C58.8967 72.9092 59.0619 72.7116 59.1323 72.4896C59.2026 72.2622 59.2378 71.9076 59.2378 71.4257V65.8059C59.2378 64.6851 58.7127 64.1248 57.6623 64.1248V63.2233H61.3818L67.4159 69.9639V65.9277C67.4159 64.7257 66.9096 64.1248 65.8972 64.1248V63.2233H69.8522V64.1248C69.5761 64.1248 69.3162 64.2006 69.0726 64.3522C68.8344 64.5038 68.6719 64.6987 68.5853 64.9369C68.4987 65.1697 68.4554 65.5108 68.4554 65.9602V74.4143H67.4159L60.2773 66.3581Z"/>
<path d="M75.8245 69.8827V71.9861C75.8245 72.495 75.9085 72.8469 76.0763 73.0418C76.2495 73.2367 76.6204 73.3342 77.1889 73.3342V74.2357H71.4472V73.3342H71.6178C72.17 73.3342 72.5273 73.234 72.6898 73.0337C72.8576 72.828 72.9415 72.4788 72.9415 71.9861V65.4729C72.9415 64.9694 72.8549 64.6202 72.6816 64.4253C72.5138 64.2249 72.1592 64.1248 71.6178 64.1248H71.4472V63.2233H77.3188V64.1248H77.1402C76.5933 64.1248 76.236 64.2277 76.0682 64.4334C75.9057 64.6337 75.8245 64.9802 75.8245 65.4729V68.5427L78.805 65.7977C79.3248 65.3213 79.5846 64.9315 79.5846 64.6283C79.5846 64.2926 79.2571 64.1248 78.602 64.1248V63.2233H83.4747V64.1248C83.0307 64.1248 82.5651 64.2385 82.0778 64.4659C81.5906 64.6933 80.9003 65.2211 80.0069 66.0495L79.008 66.9753L82.0372 71.4745C82.5462 72.2324 82.9658 72.7332 83.296 72.9769C83.6317 73.2151 84.0784 73.3342 84.636 73.3342V74.2357H78.3096V73.3342C79.1326 73.3342 79.544 73.1691 79.544 72.8388C79.544 72.698 79.3762 72.384 79.0405 71.8968L76.9453 68.8432L75.8245 69.8827Z"/>
</mask>
<path d="M27.4824 52.747V55.3539C27.4824 55.8574 27.569 56.2093 27.7423 56.4097C27.9155 56.6046 28.2701 56.702 28.8061 56.702H29.001V57.6035H23.0645V56.702H23.2837C23.836 56.702 24.1933 56.6019 24.3557 56.4015C24.5236 56.1958 24.6075 55.8466 24.6075 55.3539V48.8407C24.6075 48.3372 24.5209 47.988 24.3476 47.7931C24.1743 47.5928 23.8197 47.4926 23.2837 47.4926H23.0645V46.5911L27.4824 46.583L28.4732 46.5749C29.4531 46.5749 30.1678 46.6074 30.6172 46.6724C31.0719 46.7373 31.5186 46.8943 31.9571 47.1434C32.3957 47.387 32.7395 47.7227 32.9885 48.1504C33.243 48.5781 33.3702 49.0383 33.3702 49.531C33.3702 50.8412 32.6285 51.7373 31.145 52.2191C31.5403 52.4682 32.1548 53.2478 32.9885 54.558C33.6382 55.5705 34.1011 56.1823 34.3773 56.3934C34.6534 56.5992 34.9566 56.702 35.2868 56.702V57.6035H31.8435C31.5294 57.2299 30.9474 56.2824 30.0974 54.7611C29.6697 53.9923 29.3692 53.4969 29.1959 53.2749C29.0227 53.0529 28.844 52.9121 28.6599 52.8526C28.4813 52.7876 28.0888 52.7524 27.4824 52.747ZM27.4824 51.7562C28.3974 51.767 29.0146 51.7129 29.334 51.5938C29.6534 51.4693 29.9052 51.25 30.0893 50.936C30.2734 50.6165 30.3654 50.1861 30.3654 49.6447C30.3654 48.8705 30.1813 48.3345 29.8132 48.0367C29.4504 47.7389 28.8224 47.5901 27.929 47.5901C27.8153 47.5901 27.6665 47.5928 27.4824 47.5982V51.7562Z" fill="black"/>
<path d="M38.636 54.6311L38.4249 55.1752C38.2733 55.5596 38.1975 55.8303 38.1975 55.9874C38.1975 56.2526 38.2868 56.4394 38.4655 56.5477C38.6441 56.6506 38.9365 56.702 39.3426 56.702V57.6035H35.7043V56.702C36.3973 56.702 36.9793 56.1119 37.4503 54.9316L40.8369 46.3962H41.787L45.2385 54.9235C45.5796 55.7681 45.8882 56.277 46.1643 56.4503C46.4405 56.6181 46.7058 56.702 46.9602 56.702V57.6035H41.4947V56.702C41.9874 56.702 42.2933 56.656 42.4124 56.564C42.5315 56.4665 42.591 56.3447 42.591 56.1985C42.591 56.0686 42.5423 55.898 42.4448 55.6869L42.3393 55.4351L42.0225 54.6311H38.636ZM38.9852 53.6972H41.6571L40.2846 50.4081L38.9852 53.6972Z" fill="black"/>
<path d="M51.7062 57.8309L47.9461 49.3848C47.6429 48.7027 47.4345 48.2668 47.3208 48.0773C47.2071 47.8824 47.0555 47.7362 46.866 47.6388C46.6765 47.5413 46.3733 47.4926 45.9564 47.4926V46.5911H51.8118V47.4926C50.9943 47.4926 50.5855 47.6929 50.5855 48.0936C50.5855 48.3155 50.7019 48.681 50.9347 49.1899L53.1924 54.1845L55.312 49.1818C55.4691 48.8136 55.5476 48.5023 55.5476 48.2479C55.5476 47.7444 55.1388 47.4926 54.3213 47.4926V46.5911H58.1951V47.4926C57.7457 47.4926 57.4019 47.6117 57.1637 47.8499C56.9309 48.0882 56.56 48.8082 56.0511 50.0102L52.7051 57.8309H51.7062Z" fill="black"/>
<path d="M63.6151 52.3409V55.0615C63.6151 55.5813 63.6449 55.9224 63.7045 56.0848C63.764 56.2418 63.9237 56.3745 64.1836 56.4827C64.4435 56.5856 64.8387 56.6371 65.3693 56.6371C66.0894 56.6371 66.6173 56.5477 66.953 56.3691C67.294 56.1904 67.5972 55.8764 67.8625 55.427C68.1332 54.9776 68.3281 54.4985 68.4472 53.9895H69.3568L69.2837 57.6035H59.2135V56.702H59.4165C59.9633 56.702 60.3179 56.6019 60.4804 56.4015C60.6482 56.1958 60.7321 55.8466 60.7321 55.3539V48.8245C60.7321 48.321 60.6455 47.9717 60.4722 47.7768C60.3044 47.5765 59.9525 47.4764 59.4165 47.4764H59.2135V46.5911H68.5934L68.7559 49.4417H67.8463C67.6839 48.9436 67.5025 48.5484 67.3022 48.256C67.1018 47.9582 66.8988 47.7687 66.6931 47.6875C66.4928 47.6009 66.1517 47.5576 65.6698 47.5576H63.6151V51.3583H64.6384C65.1257 51.3583 65.4478 51.2662 65.6048 51.0822C65.7673 50.8981 65.8593 50.5353 65.881 49.9939H66.7986V53.7297H65.881C65.8864 53.6593 65.8891 53.6079 65.8891 53.5754C65.8891 53.2613 65.8214 52.9771 65.686 52.7226C65.5561 52.4682 65.2177 52.3409 64.6709 52.3409H63.6151Z" fill="black"/>
<path d="M73.7618 49.7259V54.7854C73.7618 55.5975 73.9079 56.12 74.2003 56.3528C74.4981 56.5856 74.8771 56.702 75.3373 56.702V57.6035H71.2036V56.702C71.5555 56.702 71.8614 56.6181 72.1213 56.4503C72.3812 56.277 72.5463 56.0794 72.6167 55.8574C72.6871 55.63 72.7222 55.2754 72.7222 54.7935V49.1737C72.7222 48.053 72.1971 47.4926 71.1467 47.4926V46.5911H74.8662L80.9003 53.3317V49.2955C80.9003 48.0936 80.3941 47.4926 79.3816 47.4926V46.5911H83.3366V47.4926C83.0605 47.4926 82.8006 47.5684 82.557 47.72C82.3188 47.8716 82.1564 48.0665 82.0697 48.3047C81.9831 48.5375 81.9398 48.8786 81.9398 49.328V57.7821H80.9003L73.7618 49.7259Z" fill="black"/>
<path d="M50.1307 64.1248V63.2233H55.9536V64.1248H55.7831C55.2363 64.1248 54.8789 64.2277 54.7111 64.4334C54.5487 64.6337 54.4674 64.9802 54.4674 65.4729V71.9861C54.4674 72.4896 54.5514 72.8415 54.7192 73.0418C54.8925 73.2367 55.2471 73.3342 55.7831 73.3342H55.9536V74.2357H50.1307V73.3342C50.7155 73.3342 51.1026 73.2449 51.2921 73.0662C51.487 72.8875 51.5844 72.5275 51.5844 71.9861V65.4729C51.5844 64.9477 51.4924 64.5931 51.3083 64.409C51.1296 64.2195 50.7371 64.1248 50.1307 64.1248Z" fill="black"/>
<path d="M60.2773 66.3581V71.4176C60.2773 72.2297 60.4235 72.7522 60.7159 72.985C61.0137 73.2178 61.3927 73.3342 61.8529 73.3342V74.2357H57.7192V73.3342C58.0711 73.3342 58.377 73.2503 58.6369 73.0824C58.8967 72.9092 59.0619 72.7116 59.1323 72.4896C59.2026 72.2622 59.2378 71.9076 59.2378 71.4257V65.8059C59.2378 64.6851 58.7127 64.1248 57.6623 64.1248V63.2233H61.3818L67.4159 69.9639V65.9277C67.4159 64.7257 66.9096 64.1248 65.8972 64.1248V63.2233H69.8522V64.1248C69.5761 64.1248 69.3162 64.2006 69.0726 64.3522C68.8344 64.5038 68.6719 64.6987 68.5853 64.9369C68.4987 65.1697 68.4554 65.5108 68.4554 65.9602V74.4143H67.4159L60.2773 66.3581Z" fill="black"/>
<path d="M75.8245 69.8827V71.9861C75.8245 72.495 75.9085 72.8469 76.0763 73.0418C76.2495 73.2367 76.6204 73.3342 77.1889 73.3342V74.2357H71.4472V73.3342H71.6178C72.17 73.3342 72.5273 73.234 72.6898 73.0337C72.8576 72.828 72.9415 72.4788 72.9415 71.9861V65.4729C72.9415 64.9694 72.8549 64.6202 72.6816 64.4253C72.5138 64.2249 72.1592 64.1248 71.6178 64.1248H71.4472V63.2233H77.3188V64.1248H77.1402C76.5933 64.1248 76.236 64.2277 76.0682 64.4334C75.9057 64.6337 75.8245 64.9802 75.8245 65.4729V68.5427L78.805 65.7977C79.3248 65.3213 79.5846 64.9315 79.5846 64.6283C79.5846 64.2926 79.2571 64.1248 78.602 64.1248V63.2233H83.4747V64.1248C83.0307 64.1248 82.5651 64.2385 82.0778 64.4659C81.5906 64.6933 80.9003 65.2211 80.0069 66.0495L79.008 66.9753L82.0372 71.4745C82.5462 72.2324 82.9658 72.7332 83.296 72.9769C83.6317 73.2151 84.0784 73.3342 84.636 73.3342V74.2357H78.3096V73.3342C79.1326 73.3342 79.544 73.1691 79.544 72.8388C79.544 72.698 79.3762 72.384 79.0405 71.8968L76.9453 68.8432L75.8245 69.8827Z" fill="black"/>
<path d="M27.4824 52.747V55.3539C27.4824 55.8574 27.569 56.2093 27.7423 56.4097C27.9155 56.6046 28.2701 56.702 28.8061 56.702H29.001V57.6035H23.0645V56.702H23.2837C23.836 56.702 24.1933 56.6019 24.3557 56.4015C24.5236 56.1958 24.6075 55.8466 24.6075 55.3539V48.8407C24.6075 48.3372 24.5209 47.988 24.3476 47.7931C24.1743 47.5928 23.8197 47.4926 23.2837 47.4926H23.0645V46.5911L27.4824 46.583L28.4732 46.5749C29.4531 46.5749 30.1678 46.6074 30.6172 46.6724C31.0719 46.7373 31.5186 46.8943 31.9571 47.1434C32.3957 47.387 32.7395 47.7227 32.9885 48.1504C33.243 48.5781 33.3702 49.0383 33.3702 49.531C33.3702 50.8412 32.6285 51.7373 31.145 52.2191C31.5403 52.4682 32.1548 53.2478 32.9885 54.558C33.6382 55.5705 34.1011 56.1823 34.3773 56.3934C34.6534 56.5992 34.9566 56.702 35.2868 56.702V57.6035H31.8435C31.5294 57.2299 30.9474 56.2824 30.0974 54.7611C29.6697 53.9923 29.3692 53.4969 29.1959 53.2749C29.0227 53.0529 28.844 52.9121 28.6599 52.8526C28.4813 52.7876 28.0888 52.7524 27.4824 52.747ZM27.4824 51.7562C28.3974 51.767 29.0146 51.7129 29.334 51.5938C29.6534 51.4693 29.9052 51.25 30.0893 50.936C30.2734 50.6165 30.3654 50.1861 30.3654 49.6447C30.3654 48.8705 30.1813 48.3345 29.8132 48.0367C29.4504 47.7389 28.8224 47.5901 27.929 47.5901C27.8153 47.5901 27.6665 47.5928 27.4824 47.5982V51.7562Z" stroke="#D9D9D9" stroke-width="2" mask="url(#path-3-outside-1_41_47)"/>
<path d="M38.636 54.6311L38.4249 55.1752C38.2733 55.5596 38.1975 55.8303 38.1975 55.9874C38.1975 56.2526 38.2868 56.4394 38.4655 56.5477C38.6441 56.6506 38.9365 56.702 39.3426 56.702V57.6035H35.7043V56.702C36.3973 56.702 36.9793 56.1119 37.4503 54.9316L40.8369 46.3962H41.787L45.2385 54.9235C45.5796 55.7681 45.8882 56.277 46.1643 56.4503C46.4405 56.6181 46.7058 56.702 46.9602 56.702V57.6035H41.4947V56.702C41.9874 56.702 42.2933 56.656 42.4124 56.564C42.5315 56.4665 42.591 56.3447 42.591 56.1985C42.591 56.0686 42.5423 55.898 42.4448 55.6869L42.3393 55.4351L42.0225 54.6311H38.636ZM38.9852 53.6972H41.6571L40.2846 50.4081L38.9852 53.6972Z" stroke="#D9D9D9" stroke-width="2" mask="url(#path-3-outside-1_41_47)"/>
<path d="M51.7062 57.8309L47.9461 49.3848C47.6429 48.7027 47.4345 48.2668 47.3208 48.0773C47.2071 47.8824 47.0555 47.7362 46.866 47.6388C46.6765 47.5413 46.3733 47.4926 45.9564 47.4926V46.5911H51.8118V47.4926C50.9943 47.4926 50.5855 47.6929 50.5855 48.0936C50.5855 48.3155 50.7019 48.681 50.9347 49.1899L53.1924 54.1845L55.312 49.1818C55.4691 48.8136 55.5476 48.5023 55.5476 48.2479C55.5476 47.7444 55.1388 47.4926 54.3213 47.4926V46.5911H58.1951V47.4926C57.7457 47.4926 57.4019 47.6117 57.1637 47.8499C56.9309 48.0882 56.56 48.8082 56.0511 50.0102L52.7051 57.8309H51.7062Z" stroke="#D9D9D9" stroke-width="2" mask="url(#path-3-outside-1_41_47)"/>
<path d="M63.6151 52.3409V55.0615C63.6151 55.5813 63.6449 55.9224 63.7045 56.0848C63.764 56.2418 63.9237 56.3745 64.1836 56.4827C64.4435 56.5856 64.8387 56.6371 65.3693 56.6371C66.0894 56.6371 66.6173 56.5477 66.953 56.3691C67.294 56.1904 67.5972 55.8764 67.8625 55.427C68.1332 54.9776 68.3281 54.4985 68.4472 53.9895H69.3568L69.2837 57.6035H59.2135V56.702H59.4165C59.9633 56.702 60.3179 56.6019 60.4804 56.4015C60.6482 56.1958 60.7321 55.8466 60.7321 55.3539V48.8245C60.7321 48.321 60.6455 47.9717 60.4722 47.7768C60.3044 47.5765 59.9525 47.4764 59.4165 47.4764H59.2135V46.5911H68.5934L68.7559 49.4417H67.8463C67.6839 48.9436 67.5025 48.5484 67.3022 48.256C67.1018 47.9582 66.8988 47.7687 66.6931 47.6875C66.4928 47.6009 66.1517 47.5576 65.6698 47.5576H63.6151V51.3583H64.6384C65.1257 51.3583 65.4478 51.2662 65.6048 51.0822C65.7673 50.8981 65.8593 50.5353 65.881 49.9939H66.7986V53.7297H65.881C65.8864 53.6593 65.8891 53.6079 65.8891 53.5754C65.8891 53.2613 65.8214 52.9771 65.686 52.7226C65.5561 52.4682 65.2177 52.3409 64.6709 52.3409H63.6151Z" stroke="#D9D9D9" stroke-width="2" mask="url(#path-3-outside-1_41_47)"/>
<path d="M73.7618 49.7259V54.7854C73.7618 55.5975 73.9079 56.12 74.2003 56.3528C74.4981 56.5856 74.8771 56.702 75.3373 56.702V57.6035H71.2036V56.702C71.5555 56.702 71.8614 56.6181 72.1213 56.4503C72.3812 56.277 72.5463 56.0794 72.6167 55.8574C72.6871 55.63 72.7222 55.2754 72.7222 54.7935V49.1737C72.7222 48.053 72.1971 47.4926 71.1467 47.4926V46.5911H74.8662L80.9003 53.3317V49.2955C80.9003 48.0936 80.3941 47.4926 79.3816 47.4926V46.5911H83.3366V47.4926C83.0605 47.4926 82.8006 47.5684 82.557 47.72C82.3188 47.8716 82.1564 48.0665 82.0697 48.3047C81.9831 48.5375 81.9398 48.8786 81.9398 49.328V57.7821H80.9003L73.7618 49.7259Z" stroke="#D9D9D9" stroke-width="2" mask="url(#path-3-outside-1_41_47)"/>
<path d="M50.1307 64.1248V63.2233H55.9536V64.1248H55.7831C55.2363 64.1248 54.8789 64.2277 54.7111 64.4334C54.5487 64.6337 54.4674 64.9802 54.4674 65.4729V71.9861C54.4674 72.4896 54.5514 72.8415 54.7192 73.0418C54.8925 73.2367 55.2471 73.3342 55.7831 73.3342H55.9536V74.2357H50.1307V73.3342C50.7155 73.3342 51.1026 73.2449 51.2921 73.0662C51.487 72.8875 51.5844 72.5275 51.5844 71.9861V65.4729C51.5844 64.9477 51.4924 64.5931 51.3083 64.409C51.1296 64.2195 50.7371 64.1248 50.1307 64.1248Z" stroke="#D9D9D9" stroke-width="2" mask="url(#path-3-outside-1_41_47)"/>
<path d="M60.2773 66.3581V71.4176C60.2773 72.2297 60.4235 72.7522 60.7159 72.985C61.0137 73.2178 61.3927 73.3342 61.8529 73.3342V74.2357H57.7192V73.3342C58.0711 73.3342 58.377 73.2503 58.6369 73.0824C58.8967 72.9092 59.0619 72.7116 59.1323 72.4896C59.2026 72.2622 59.2378 71.9076 59.2378 71.4257V65.8059C59.2378 64.6851 58.7127 64.1248 57.6623 64.1248V63.2233H61.3818L67.4159 69.9639V65.9277C67.4159 64.7257 66.9096 64.1248 65.8972 64.1248V63.2233H69.8522V64.1248C69.5761 64.1248 69.3162 64.2006 69.0726 64.3522C68.8344 64.5038 68.6719 64.6987 68.5853 64.9369C68.4987 65.1697 68.4554 65.5108 68.4554 65.9602V74.4143H67.4159L60.2773 66.3581Z" stroke="#D9D9D9" stroke-width="2" mask="url(#path-3-outside-1_41_47)"/>
<path d="M75.8245 69.8827V71.9861C75.8245 72.495 75.9085 72.8469 76.0763 73.0418C76.2495 73.2367 76.6204 73.3342 77.1889 73.3342V74.2357H71.4472V73.3342H71.6178C72.17 73.3342 72.5273 73.234 72.6898 73.0337C72.8576 72.828 72.9415 72.4788 72.9415 71.9861V65.4729C72.9415 64.9694 72.8549 64.6202 72.6816 64.4253C72.5138 64.2249 72.1592 64.1248 71.6178 64.1248H71.4472V63.2233H77.3188V64.1248H77.1402C76.5933 64.1248 76.236 64.2277 76.0682 64.4334C75.9057 64.6337 75.8245 64.9802 75.8245 65.4729V68.5427L78.805 65.7977C79.3248 65.3213 79.5846 64.9315 79.5846 64.6283C79.5846 64.2926 79.2571 64.1248 78.602 64.1248V63.2233H83.4747V64.1248C83.0307 64.1248 82.5651 64.2385 82.0778 64.4659C81.5906 64.6933 80.9003 65.2211 80.0069 66.0495L79.008 66.9753L82.0372 71.4745C82.5462 72.2324 82.9658 72.7332 83.296 72.9769C83.6317 73.2151 84.0784 73.3342 84.636 73.3342V74.2357H78.3096V73.3342C79.1326 73.3342 79.544 73.1691 79.544 72.8388C79.544 72.698 79.3762 72.384 79.0405 71.8968L76.9453 68.8432L75.8245 69.8827Z" stroke="#D9D9D9" stroke-width="2" mask="url(#path-3-outside-1_41_47)"/>
<ellipse cx="28.5778" cy="48.7407" rx="0.681313" ry="0.763899" fill="#D9D9D9"/>
</g>
<defs>
<clipPath id="clip0_41_47">
<rect width="150" height="80" fill="white"/>
</clipPath>
</defs>
</svg>
